General
Complete name : Guvllivers Travel 2010 marleys.ghost.avi
Format : AVI
Format/Info : Audio Video Interleave
File size : 1.37 GiB
Duration : 1h 20mn
Overall bit rate : 2 452 Kbps
Writing library : VirtualDub build 30091/release

Video
ID : 0
Format : MPEG-4 Visual
Format profile : Advanced Simple-L5
Format settings, BVOP : Yes
Format settings, QPel : No
Format settings, GMC : No warppoints
Format settings, Matrix : Default (MPEG)
Muxing mode : Packed bitstream
Codec ID : XVID
Codec ID/Hint : XviD
Duration : 1h 20mn
Bit rate : 2 314 Kbps
Width : 720 pixels
Height : 384 pixels
Display aspect ratio : 1.875
Frame rate : 23.976 fps
Resolution : 8 bits
Colorimetry : 4:2:0
Scan type : Progressive
Bits/(Pixel*Frame) : 0.349
Stream size : 1.29 GiB (94%)
Writing library : XviD 1.2.1 (UTC 2008-12-04)

Audio
ID : 1
Format : MPEG Audio
Format version : Version 1
Format profile : Layer 3
Codec ID : 55
Codec ID/Hint : MP3
Duration : 1h 20mn
Bit rate mode : Constant
Bit rate : 128 Kbps
Channel(s) : 2 channels
Sampling rate : 48.0 KHz
Stream size : 73.3 MiB (5%)
Alignment : Split accross interleaves
Interleave, duration : 42 ms (1.00 video frame)
Interleave, preload duration : 500 ms






================================== 
http://thepiratebay.org/user/hiest
==================================





Screens:
 
http://sweetpic.ru/images/guvllivers.jpg

